<mxfile host="app.diagrams.net" modified="2021-06-19T07:23:39.398Z" agent="5.0 (Macintosh; Intel Mac OS X 10_15_7) AppleWebKit/537.36 (KHTML, like Gecko) Chrome/91.0.4472.106 Safari/537.36" etag="fDKzu5WfBpnWarmxfjWG" version="14.8.0" type="github">
  <diagram id="d4Ef0iPleq8nUR0kv_Nl" name="第 1 页">
    <mxGraphModel dx="679" dy="378" grid="1" gridSize="10" guides="1" tooltips="1" connect="1" arrows="1" fold="1" page="1" pageScale="1" pageWidth="827" pageHeight="1169" math="0" shadow="0">
      <root>
        <mxCell id="0" />
        <mxCell id="1" parent="0" />
        <mxCell id="lYPsfmJaPjCEzyaRxrvU-9" style="edgeStyle=orthogonalEdgeStyle;rounded=0;orthogonalLoop=1;jettySize=auto;html=1;shape=flexArrow;startArrow=block;exitX=0.5;exitY=1;exitDx=0;exitDy=0;" edge="1" parent="1" source="RurQdvNS4L2G9iKuI0Ui-2">
          <mxGeometry relative="1" as="geometry">
            <mxPoint x="170" y="303" as="targetPoint" />
            <mxPoint x="170" y="248" as="sourcePoint" />
          </mxGeometry>
        </mxCell>
        <mxCell id="RurQdvNS4L2G9iKuI0Ui-2" value="CPU&lt;br&gt;1" style="whiteSpace=wrap;html=1;aspect=fixed;" parent="1" vertex="1">
          <mxGeometry x="130" y="100" width="80" height="80" as="geometry" />
        </mxCell>
        <mxCell id="RurQdvNS4L2G9iKuI0Ui-4" value="" style="shape=flexArrow;endArrow=classic;startArrow=classic;html=1;" parent="1" edge="1">
          <mxGeometry width="100" height="100" relative="1" as="geometry">
            <mxPoint x="110" y="310" as="sourcePoint" />
            <mxPoint x="760" y="310" as="targetPoint" />
          </mxGeometry>
        </mxCell>
        <mxCell id="RurQdvNS4L2G9iKuI0Ui-12" value="总线" style="edgeLabel;html=1;align=center;verticalAlign=middle;resizable=0;points=[];" parent="RurQdvNS4L2G9iKuI0Ui-4" vertex="1" connectable="0">
          <mxGeometry x="0.3596" relative="1" as="geometry">
            <mxPoint as="offset" />
          </mxGeometry>
        </mxCell>
        <mxCell id="RurQdvNS4L2G9iKuI0Ui-5" value="RAM&lt;br&gt;1" style="rounded=0;whiteSpace=wrap;html=1;" parent="1" vertex="1">
          <mxGeometry x="390" y="410" width="120" height="60" as="geometry" />
        </mxCell>
        <mxCell id="RurQdvNS4L2G9iKuI0Ui-14" style="edgeStyle=orthogonalEdgeStyle;rounded=0;orthogonalLoop=1;jettySize=auto;html=1;shape=flexArrow;startArrow=block;exitX=0.5;exitY=0;exitDx=0;exitDy=0;" parent="1" source="RurQdvNS4L2G9iKuI0Ui-13" edge="1">
          <mxGeometry relative="1" as="geometry">
            <mxPoint x="300" y="316" as="targetPoint" />
            <mxPoint x="300" y="406" as="sourcePoint" />
          </mxGeometry>
        </mxCell>
        <mxCell id="RurQdvNS4L2G9iKuI0Ui-13" value="DMA" style="whiteSpace=wrap;html=1;aspect=fixed;" parent="1" vertex="1">
          <mxGeometry x="260" y="410" width="80" height="80" as="geometry" />
        </mxCell>
        <mxCell id="RurQdvNS4L2G9iKuI0Ui-15" value="CPU和内存之间的数据交换要经过MMU把逻辑地址(又成为虚拟地址)转换为实际物理地址,CPU通过引脚访问内存的物理地址&lt;br&gt;内存的访问是通过总线访问的,并且是串行话访问,即同一时刻,只能有一颗CPU或者一个DMA设备访问物理内存(RAM)&lt;br&gt;为了保证内存的串行访问,总线和每个RMA芯片之间会有一个内存仲裁器" style="text;html=1;align=left;verticalAlign=middle;resizable=0;points=[];autosize=1;strokeColor=none;" parent="1" vertex="1">
          <mxGeometry x="320" y="245" width="670" height="50" as="geometry" />
        </mxCell>
        <mxCell id="lYPsfmJaPjCEzyaRxrvU-1" value="" style="shape=flexArrow;endArrow=classic;startArrow=none;html=1;" edge="1" parent="1" source="lYPsfmJaPjCEzyaRxrvU-2">
          <mxGeometry width="100" height="100" relative="1" as="geometry">
            <mxPoint x="449.76" y="406" as="sourcePoint" />
            <mxPoint x="450" y="316" as="targetPoint" />
          </mxGeometry>
        </mxCell>
        <mxCell id="lYPsfmJaPjCEzyaRxrvU-2" value="&lt;span&gt;内存仲裁器&lt;/span&gt;&lt;br&gt;&lt;span&gt;memory arbiter&lt;/span&gt;" style="ellipse;whiteSpace=wrap;html=1;" vertex="1" parent="1">
          <mxGeometry x="390" y="344" width="120" height="40" as="geometry" />
        </mxCell>
        <mxCell id="lYPsfmJaPjCEzyaRxrvU-3" value="" style="shape=flexArrow;endArrow=none;startArrow=classic;html=1;exitX=0.5;exitY=0;exitDx=0;exitDy=0;" edge="1" parent="1" source="RurQdvNS4L2G9iKuI0Ui-5" target="lYPsfmJaPjCEzyaRxrvU-2">
          <mxGeometry width="100" height="100" relative="1" as="geometry">
            <mxPoint x="449.76" y="406" as="sourcePoint" />
            <mxPoint x="450" y="316" as="targetPoint" />
          </mxGeometry>
        </mxCell>
        <mxCell id="lYPsfmJaPjCEzyaRxrvU-4" value="RAM&lt;br&gt;2" style="rounded=0;whiteSpace=wrap;html=1;" vertex="1" parent="1">
          <mxGeometry x="520" y="410" width="120" height="60" as="geometry" />
        </mxCell>
        <mxCell id="lYPsfmJaPjCEzyaRxrvU-5" value="" style="shape=flexArrow;endArrow=classic;startArrow=none;html=1;" edge="1" parent="1" source="lYPsfmJaPjCEzyaRxrvU-6">
          <mxGeometry width="100" height="100" relative="1" as="geometry">
            <mxPoint x="579.76" y="406" as="sourcePoint" />
            <mxPoint x="580" y="316" as="targetPoint" />
          </mxGeometry>
        </mxCell>
        <mxCell id="lYPsfmJaPjCEzyaRxrvU-6" value="&lt;span&gt;内存仲裁器&lt;/span&gt;&lt;br&gt;&lt;span&gt;memory arbiter&lt;/span&gt;" style="ellipse;whiteSpace=wrap;html=1;" vertex="1" parent="1">
          <mxGeometry x="520" y="344" width="120" height="40" as="geometry" />
        </mxCell>
        <mxCell id="lYPsfmJaPjCEzyaRxrvU-7" value="" style="shape=flexArrow;endArrow=none;startArrow=classic;html=1;exitX=0.5;exitY=0;exitDx=0;exitDy=0;" edge="1" parent="1" target="lYPsfmJaPjCEzyaRxrvU-6" source="lYPsfmJaPjCEzyaRxrvU-4">
          <mxGeometry width="100" height="100" relative="1" as="geometry">
            <mxPoint x="579.76" y="406" as="sourcePoint" />
            <mxPoint x="580" y="316" as="targetPoint" />
          </mxGeometry>
        </mxCell>
        <mxCell id="lYPsfmJaPjCEzyaRxrvU-10" style="edgeStyle=orthogonalEdgeStyle;rounded=0;orthogonalLoop=1;jettySize=auto;html=1;shape=flexArrow;startArrow=block;exitX=0.5;exitY=1;exitDx=0;exitDy=0;" edge="1" parent="1" source="lYPsfmJaPjCEzyaRxrvU-11">
          <mxGeometry relative="1" as="geometry">
            <mxPoint x="270" y="303" as="targetPoint" />
            <mxPoint x="270" y="248" as="sourcePoint" />
          </mxGeometry>
        </mxCell>
        <mxCell id="lYPsfmJaPjCEzyaRxrvU-11" value="CPU&lt;br&gt;2" style="whiteSpace=wrap;html=1;aspect=fixed;" vertex="1" parent="1">
          <mxGeometry x="230" y="100" width="80" height="80" as="geometry" />
        </mxCell>
        <mxCell id="lYPsfmJaPjCEzyaRxrvU-12" value="MMU" style="rounded=0;whiteSpace=wrap;html=1;" vertex="1" parent="1">
          <mxGeometry x="120" y="220" width="190" height="30" as="geometry" />
        </mxCell>
        <mxCell id="lYPsfmJaPjCEzyaRxrvU-13" value="CPU" style="whiteSpace=wrap;html=1;aspect=fixed;align=left;" vertex="1" parent="1">
          <mxGeometry x="230" y="560" width="190" height="190" as="geometry" />
        </mxCell>
        <mxCell id="lYPsfmJaPjCEzyaRxrvU-15" value="cs 代码段寄存器" style="rounded=0;whiteSpace=wrap;html=1;align=left;fontSize=6;" vertex="1" parent="1">
          <mxGeometry x="324" y="568" width="90" height="20" as="geometry" />
        </mxCell>
        <mxCell id="lYPsfmJaPjCEzyaRxrvU-16" value="ss 栈段寄存器" style="rounded=0;whiteSpace=wrap;html=1;align=left;fontSize=6;" vertex="1" parent="1">
          <mxGeometry x="324" y="599" width="90" height="20" as="geometry" />
        </mxCell>
        <mxCell id="lYPsfmJaPjCEzyaRxrvU-17" value="ds 数据段寄存器" style="rounded=0;whiteSpace=wrap;html=1;align=left;fontSize=6;" vertex="1" parent="1">
          <mxGeometry x="324" y="630" width="90" height="20" as="geometry" />
        </mxCell>
        <mxCell id="lYPsfmJaPjCEzyaRxrvU-18" value="es" style="rounded=0;whiteSpace=wrap;html=1;align=left;fontSize=6;" vertex="1" parent="1">
          <mxGeometry x="324" y="661" width="90" height="20" as="geometry" />
        </mxCell>
        <mxCell id="lYPsfmJaPjCEzyaRxrvU-19" value="fs" style="rounded=0;whiteSpace=wrap;html=1;align=left;fontSize=6;" vertex="1" parent="1">
          <mxGeometry x="324" y="692" width="90" height="20" as="geometry" />
        </mxCell>
        <mxCell id="lYPsfmJaPjCEzyaRxrvU-20" value="g" style="rounded=0;whiteSpace=wrap;html=1;align=left;fontSize=6;" vertex="1" parent="1">
          <mxGeometry x="324" y="723" width="90" height="20" as="geometry" />
        </mxCell>
      </root>
    </mxGraphModel>
  </diagram>
</mxfile>
